<svg width="25" height="23" viewBox="0 0 25 23" fill="none" xmlns="http://www.w3.org/2000/svg">
<g id="gears-svgrepo-com 1" clip-path="url(#clip0_1_4844)">
<g id="Group">
<g id="bigg">
<g id="Group 15">
<path id="big-gear" d="M14.566 11.7999L13.6247 10.9443C13.7274 10.7522 13.8173 10.5548 13.8942 10.3529H15.2253C15.6627 10.3529 16.0175 10.0305 16.0175 9.63275V7.52167C16.0175 7.12402 15.6628 6.80153 15.2253 6.80153H13.8941C13.8173 6.59965 13.7273 6.40233 13.6247 6.21023L14.566 5.35447C14.8754 5.07326 14.8754 4.61728 14.566 4.33607L12.924 2.84333C12.6146 2.56219 12.1132 2.56219 11.8038 2.84333L10.8624 3.69908C10.6511 3.60579 10.4341 3.52395 10.212 3.45416V2.24395C10.212 1.8463 9.85733 1.5238 9.41984 1.5238H7.09766C6.66024 1.5238 6.3055 1.84623 6.3055 2.24395V3.45416C6.08343 3.52402 5.86638 3.60571 5.65507 3.69908L4.71382 2.84333C4.56529 2.7083 4.36376 2.63242 4.15366 2.63242C3.94356 2.63242 3.7421 2.7083 3.5935 2.84333L1.95139 4.33607C1.80287 4.47109 1.71939 4.65431 1.71939 4.84531C1.71939 5.03631 1.80287 5.21945 1.95139 5.35455L2.89273 6.21031C2.7901 6.40233 2.70008 6.59965 2.62331 6.8016H1.29216C0.854667 6.8016 0.5 7.12402 0.5 7.52167V9.63282C0.5 10.0305 0.854667 10.353 1.29216 10.353H2.62331C2.70024 10.5548 2.7901 10.7522 2.89281 10.9443L1.95147 11.8C1.64214 12.0812 1.64214 12.5372 1.95147 12.8184L3.5935 14.3112C3.90291 14.5922 4.40432 14.5924 4.71374 14.3112L5.65507 13.4554C5.8663 13.5488 6.08343 13.6306 6.3055 13.7004V14.9106C6.3055 15.3083 6.66016 15.6308 7.09766 15.6308H9.41992C9.85733 15.6308 10.2121 15.3083 10.2121 14.9106V13.7004C10.4341 13.6305 10.6512 13.5488 10.8625 13.4554L11.8038 14.3112C12.1133 14.5923 12.6147 14.5923 12.9241 14.3112L14.5661 12.8184C14.8754 12.5371 14.8754 12.0812 14.566 11.7999ZM12.5265 9.47172C12.4174 9.9036 12.2309 10.3129 11.9722 10.6881C11.776 10.9725 11.8222 11.3424 12.0833 11.5797L12.8857 12.3092L12.3639 12.7836L11.5614 12.0541C11.3002 11.8167 10.8935 11.775 10.5806 11.953C10.1677 12.1883 9.71762 12.3579 9.24279 12.4569C8.88287 12.532 8.62784 12.8232 8.62784 13.1588V14.1905H7.8899V13.1588C7.8899 12.8232 7.63487 12.5321 7.27495 12.4569C6.80012 12.3579 6.35002 12.1883 5.93709 11.953C5.62453 11.775 5.21749 11.8166 4.95632 12.0541L4.15382 12.7836L3.63204 12.3092L4.43446 11.5797C4.69556 11.3424 4.74162 10.9725 4.54558 10.6881C4.28683 10.3129 4.10032 9.9036 3.99123 9.47172C3.90865 9.14459 3.5884 8.91275 3.21919 8.91275H2.08424V8.24189H3.21895C3.58808 8.24189 3.90832 8.01005 3.99099 7.683C4.10016 7.25104 4.28659 6.84186 4.54533 6.46669C4.74154 6.18232 4.69539 5.81236 4.4343 5.57501L3.6318 4.84546L4.15366 4.37111L4.95608 5.10066C5.21717 5.33809 5.6242 5.37974 5.93693 5.2016C6.3497 4.96637 6.7998 4.7969 7.27471 4.6978C7.63463 4.62272 7.88966 4.33152 7.88966 3.99587V2.9641H8.6276V3.99572C8.6276 4.33137 8.88263 4.6225 9.24255 4.69765C9.71754 4.79675 10.1676 4.96623 10.5803 5.20145C10.8931 5.37975 11.3002 5.33802 11.5612 5.10052L12.3637 4.37097L12.8855 4.84531L12.0829 5.57486C11.8219 5.81229 11.7758 6.18217 11.9719 6.46654C12.2307 6.84171 12.4171 7.25097 12.5263 7.68285C12.6088 8.0099 12.9292 8.24175 13.2983 8.24175H14.433V8.9126H13.2983C12.9293 8.91267 12.6091 9.14452 12.5265 9.47172Z" fill="currentColor"/>
</g>
<path id="Vector" d="M8.25871 5.81006C6.58025 5.81006 5.21475 7.05142 5.21475 8.57729C5.21475 10.1032 6.58025 11.3445 8.25871 11.3445C9.93718 11.3445 11.3027 10.1032 11.3027 8.57729C11.3027 7.05142 9.93726 5.81006 8.25871 5.81006ZM8.25871 9.90431C7.45378 9.90431 6.79899 9.30905 6.79899 8.57729C6.79899 7.84554 7.45386 7.25028 8.25871 7.25028C9.06356 7.25028 9.71843 7.84554 9.71843 8.57729C9.71843 9.30905 9.06364 9.90431 8.25871 9.90431Z" fill="currentColor"/>
</g>
<g id="small">
<g id="Group 14">
<path id="small-gear" d="M23.9811 16.8324C24.3253 16.7746 24.5528 16.4742 24.4893 16.1614L24.1904 14.6882C24.16 14.5379 24.065 14.4049 23.9267 14.3183C23.7882 14.2317 23.6175 14.1985 23.4523 14.2262L22.5731 14.3736C22.505 14.2672 22.4312 14.1639 22.3523 14.0638L22.8592 13.3945C22.9545 13.2686 22.9909 13.1135 22.9604 12.9633C22.93 12.813 22.835 12.6799 22.6966 12.5933L21.3394 11.7438C21.0514 11.5635 20.6566 11.6294 20.4581 11.8915L19.9512 12.5609C19.8202 12.5295 19.6877 12.5038 19.5541 12.4839L19.3919 11.6847C19.3284 11.3719 18.9975 11.1648 18.6538 11.2227L17.0333 11.4945C16.868 11.5222 16.7217 11.6085 16.6264 11.7343C16.5311 11.8602 16.4947 12.0152 16.5251 12.1655L16.6873 12.9647C16.5702 13.0267 16.4565 13.0937 16.3465 13.1655L15.6102 12.7047C15.4717 12.6181 15.3011 12.5851 15.1359 12.6126C14.9706 12.6403 14.8242 12.7266 14.7289 12.8525L13.7945 14.0864C13.6991 14.2122 13.6628 14.3673 13.6932 14.5175C13.7237 14.6678 13.8186 14.8009 13.9571 14.8875L14.6933 15.3483C14.6587 15.4674 14.6305 15.5878 14.6086 15.7094L13.7294 15.8568C13.5641 15.8845 13.4177 15.9708 13.3225 16.0966C13.2271 16.2225 13.1908 16.3776 13.2212 16.5278L13.5202 18.0009C13.5837 18.3138 13.9141 18.521 14.2583 18.4629L15.1375 18.3155C15.2056 18.4219 15.2794 18.5253 15.3583 18.6253L14.8514 19.2946C14.7562 19.4205 14.7197 19.5755 14.7502 19.7258C14.7807 19.8761 14.8756 20.0091 15.014 20.0958L16.3713 20.9453C16.6593 21.1256 17.0541 21.0596 17.2525 20.7975L17.7594 20.1282C17.8904 20.1596 18.0228 20.1852 18.1566 20.2052L18.3188 21.0044C18.3751 21.2819 18.6415 21.4761 18.9412 21.4761C18.9794 21.4761 19.0181 21.473 19.0569 21.4665L20.6773 21.1947C20.8426 21.1671 20.989 21.0807 21.0842 20.955C21.1795 20.8291 21.216 20.674 21.1855 20.5237L21.0233 19.7245C21.1404 19.6625 21.2541 19.5955 21.3642 19.5237L22.1003 19.9845C22.2388 20.0712 22.4093 20.1044 22.5747 20.0766C22.74 20.0489 22.8863 19.9626 22.9816 19.8367L23.9161 18.6029C24.1145 18.3408 24.0418 17.9822 23.7536 17.8018L23.0173 17.3409C23.0519 17.2218 23.0801 17.1014 23.102 16.9799L23.9811 16.8324ZM22.4066 15.9249C22.116 15.9736 21.9011 16.1984 21.8884 16.4667C21.8739 16.7734 21.8034 17.0735 21.679 17.359C21.5701 17.6086 21.6654 17.8935 21.9087 18.0458L22.5129 18.4241L22.2972 18.7089L21.6931 18.3308C21.4496 18.1784 21.1229 18.1992 20.9053 18.3807C20.6564 18.5882 20.373 18.7552 20.063 18.877C19.7918 18.9835 19.6375 19.2463 19.6911 19.5103L19.8242 20.1664L19.4501 20.2291L19.3171 19.5732C19.2635 19.3091 19.0163 19.1136 18.7212 19.1021C18.3836 19.0888 18.0533 19.0248 17.7394 18.9117C17.6632 18.8843 17.5843 18.8711 17.5061 18.8711C17.3024 18.8711 17.105 18.9608 16.984 19.1206L16.568 19.6698L16.2546 19.4737L16.6706 18.9245C16.8381 18.7033 16.8153 18.4063 16.6156 18.2084C16.3874 17.982 16.2037 17.7244 16.0696 17.4425C15.9524 17.196 15.6627 17.0557 15.373 17.1045L14.6514 17.2255L14.5823 16.8855L15.304 16.7645C15.5946 16.7158 15.8095 16.491 15.8221 16.2227C15.8367 15.916 15.9071 15.6158 16.0316 15.3302C16.1404 15.0806 16.0451 14.7958 15.8017 14.6434L15.1975 14.2653L15.4133 13.9804L16.0175 14.3586C16.261 14.511 16.5875 14.4902 16.8052 14.3087C17.0542 14.1011 17.3376 13.9341 17.6477 13.8123C17.9188 13.7057 18.073 13.443 18.0194 13.179L17.8863 12.523L18.2604 12.4603L18.3935 13.1162C18.4471 13.3804 18.6943 13.5758 18.9895 13.5873C19.3268 13.6005 19.657 13.6645 19.971 13.7777C20.2459 13.8767 20.5591 13.7899 20.7265 13.5688L21.1426 13.0195L21.456 13.2156L21.04 13.7649C20.8724 13.9862 20.8952 14.2832 21.0949 14.4811C21.3232 14.7073 21.5069 14.9649 21.6409 15.2468C21.7579 15.4932 22.0473 15.6336 22.3375 15.5848L23.0591 15.4638L23.1281 15.8039L22.4066 15.9249Z" fill="currentColor"/>
</g>
<path id="Vector_2" d="M20.1208 14.6737C19.6299 14.3664 19.0365 14.2514 18.4504 14.3496C17.8642 14.4479 17.3552 14.7479 17.0172 15.1942C16.3193 16.1156 16.5762 17.3813 17.5897 18.0157C17.9753 18.2571 18.4158 18.3728 18.8519 18.3728C19.5621 18.3728 20.261 18.0659 20.6934 17.4951C21.3911 16.5738 21.1343 15.308 20.1208 14.6737ZM19.6495 16.8417C19.348 17.2398 18.7464 17.3407 18.3086 17.0667C17.8707 16.7926 17.7596 16.2457 18.0611 15.8477C18.0612 15.8476 18.0612 15.8476 18.0612 15.8476C18.2071 15.6547 18.4271 15.5252 18.6804 15.4827C18.7393 15.4729 18.7986 15.4679 18.8573 15.4679C19.0507 15.4679 19.2394 15.5209 19.4021 15.6227C19.84 15.8968 19.951 16.4437 19.6495 16.8417Z" fill="currentColor"/>
</g>
</g>
</g>
<defs>
<clipPath id="clip0_1_4844">
<rect width="24" height="21.8182" fill="white" transform="translate(0.5 0.590942)"/>
</clipPath>
</defs>
</svg>
