<svg width="14" height="14" viewBox="0 0 14 14" fill="none" xmlns="http://www.w3.org/2000/svg">
    <g id="facebook">
        <g clip-path="url(#clip0_1_58)">
        <path d="M8.16671 7.87484H9.62504L10.2084 5.5415H8.16671V4.37484C8.16671 3.774 8.16671 3.20817 9.33337 3.20817H10.2084V1.24817C10.0182 1.22309 9.30012 1.1665 8.54179 1.1665C6.95804 1.1665 5.83337 2.13309 5.83337 3.90817V5.5415H4.08337V7.87484H5.83337V12.8332H8.16671V7.87484Z" fill="currentColor"/>
        </g>
        <defs>
        <clipPath id="clip0_1_58">
        <rect width="14" height="14" fill="currentColor"/>
        </clipPath>
        </defs>
    </g>
    <g id="instagram">
        <g clip-path="url(#clip0_1_65)">
            <path d="M6.99996 1.1665C8.58488 1.1665 8.78263 1.17234 9.40446 1.2015C10.0257 1.23067 10.4486 1.32809 10.8208 1.47275C11.2058 1.62092 11.5301 1.82159 11.8545 2.14534C12.1511 2.43694 12.3806 2.78968 12.527 3.179C12.6711 3.55059 12.7691 3.97409 12.7983 4.59534C12.8257 5.21717 12.8333 5.41492 12.8333 6.99984C12.8333 8.58475 12.8275 8.7825 12.7983 9.40434C12.7691 10.0256 12.6711 10.4485 12.527 10.8207C12.381 11.2102 12.1514 11.563 11.8545 11.8543C11.5628 12.1509 11.2101 12.3804 10.8208 12.5269C10.4492 12.671 10.0257 12.769 9.40446 12.7982C8.78263 12.8256 8.58488 12.8332 6.99996 12.8332C5.41504 12.8332 5.21729 12.8273 4.59546 12.7982C3.97421 12.769 3.55129 12.671 3.17913 12.5269C2.78965 12.3808 2.43685 12.1512 2.14546 11.8543C1.84878 11.5628 1.61925 11.21 1.47288 10.8207C1.32821 10.4491 1.23079 10.0256 1.20163 9.40434C1.17421 8.7825 1.16663 8.58475 1.16663 6.99984C1.16663 5.41492 1.17246 5.21717 1.20163 4.59534C1.23079 3.9735 1.32821 3.55117 1.47288 3.179C1.61885 2.78944 1.84843 2.43661 2.14546 2.14534C2.43693 1.84856 2.78971 1.61901 3.17913 1.47275C3.55129 1.32809 3.97363 1.23067 4.59546 1.2015C5.21729 1.17409 5.41504 1.1665 6.99996 1.1665ZM6.99996 4.08317C6.22641 4.08317 5.48455 4.39046 4.93756 4.93744C4.39058 5.48442 4.08329 6.22629 4.08329 6.99984C4.08329 7.77339 4.39058 8.51525 4.93756 9.06223C5.48455 9.60921 6.22641 9.9165 6.99996 9.9165C7.77351 9.9165 8.51537 9.60921 9.06235 9.06223C9.60934 8.51525 9.91663 7.77339 9.91663 6.99984C9.91663 6.22629 9.60934 5.48442 9.06235 4.93744C8.51537 4.39046 7.77351 4.08317 6.99996 4.08317ZM10.7916 3.93734C10.7916 3.74395 10.7148 3.55848 10.5781 3.42174C10.4413 3.28499 10.2558 3.20817 10.0625 3.20817C9.86907 3.20817 9.68361 3.28499 9.54686 3.42174C9.41012 3.55848 9.33329 3.74395 9.33329 3.93734C9.33329 4.13072 9.41012 4.31619 9.54686 4.45294C9.68361 4.58968 9.86907 4.6665 10.0625 4.6665C10.2558 4.6665 10.4413 4.58968 10.5781 4.45294C10.7148 4.31619 10.7916 4.13072 10.7916 3.93734ZM6.99996 5.24984C7.46409 5.24984 7.90921 5.43421 8.2374 5.7624C8.56559 6.09059 8.74996 6.53571 8.74996 6.99984C8.74996 7.46397 8.56559 7.90909 8.2374 8.23727C7.90921 8.56546 7.46409 8.74984 6.99996 8.74984C6.53583 8.74984 6.09071 8.56546 5.76252 8.23727C5.43433 7.90909 5.24996 7.46397 5.24996 6.99984C5.24996 6.53571 5.43433 6.09059 5.76252 5.7624C6.09071 5.43421 6.53583 5.24984 6.99996 5.24984Z" fill="currentColor"/>
        </g>
        <defs>
            <clipPath id="clip0_1_65">
                <rect width="14" height="14" fill="currentColor"/>
            </clipPath>
        </defs>
    </g>
    <g id="twitter">
        <g clip-path="url(#clip0_1_72)">
            <path d="M12.9278 3.29953C12.4825 3.49652 12.0102 3.62589 11.5266 3.68337C12.0363 3.37854 12.4178 2.89879 12.6 2.33353C12.1216 2.6182 11.5972 2.8177 11.0506 2.92562C10.6835 2.53279 10.1968 2.27226 9.66636 2.18454C9.13587 2.09682 8.59127 2.18682 8.11721 2.44055C7.64315 2.69428 7.2662 3.09752 7.04495 3.58758C6.82371 4.07764 6.77057 4.62707 6.8938 5.15045C5.92378 5.10183 4.97483 4.84976 4.10855 4.41059C3.24228 3.97142 2.47804 3.35498 1.86547 2.60128C1.64864 2.97371 1.53469 3.39708 1.5353 3.82803C1.5353 4.67387 1.9658 5.42112 2.6203 5.85862C2.23298 5.84642 1.85417 5.74182 1.51547 5.55354V5.58387C1.51559 6.14719 1.71052 6.69314 2.06721 7.12915C2.42391 7.56516 2.92042 7.8644 3.47255 7.97612C3.113 8.07356 2.73598 8.08792 2.37005 8.01812C2.52573 8.503 2.82914 8.92707 3.23782 9.23093C3.64649 9.5348 4.13996 9.70325 4.64914 9.7127C4.14308 10.1101 3.56366 10.4039 2.94398 10.5773C2.32431 10.7507 1.67654 10.8002 1.03772 10.723C2.15288 11.4402 3.45103 11.8209 4.77689 11.8197C9.26447 11.8197 11.7186 8.10212 11.7186 4.87804C11.7186 4.77304 11.7156 4.66687 11.711 4.56303C12.1886 4.2178 12.6009 3.79013 12.9284 3.30012L12.9278 3.29953Z" fill="currentColor"/>
        </g>
        <defs>
            <clipPath id="clip0_1_72">
                <rect width="14" height="14" fill="currentColor"/>
            </clipPath>
        </defs>
    </g>
    <g id="linkedin">
        <g clip-path="url(#clip0_1_79)">
            <path d="M4.0483 2.91676C4.04814 3.22618 3.92508 3.52287 3.70618 3.74155C3.48728 3.96023 3.19047 4.083 2.88105 4.08285C2.57163 4.08269 2.27495 3.95963 2.05626 3.74072C1.83758 3.52182 1.71481 3.22501 1.71497 2.9156C1.71512 2.60618 1.83819 2.30949 2.05709 2.09081C2.27599 1.87213 2.5728 1.74936 2.88222 1.74951C3.19164 1.74967 3.48832 1.87273 3.707 2.09163C3.92569 2.31053 4.04845 2.60734 4.0483 2.91676ZM4.0833 4.94676H1.74997V12.2501H4.0833V4.94676ZM7.76997 4.94676H5.4483V12.2501H7.74663V8.4176C7.74663 6.2826 10.5291 6.08426 10.5291 8.4176V12.2501H12.8333V7.62426C12.8333 4.0251 8.71497 4.15926 7.74663 5.92676L7.76997 4.94676Z" fill="currentColor"/>
        </g>
        <defs>
            <clipPath id="clip0_1_79">
                <rect width="14" height="14" fill="currentColor"/>
            </clipPath>
        </defs>
    </g>
    <g id="youtube">
        <g clip-path="url(#clip0_1_86)">
            <path d="M12.5667 3.79066C12.8333 4.83016 12.8333 7.00016 12.8333 7.00016C12.8333 7.00016 12.8333 9.17016 12.5667 10.2097C12.4185 10.7842 11.9851 11.2363 11.4362 11.3892C10.4393 11.6668 6.99996 11.6668 6.99996 11.6668C6.99996 11.6668 3.56238 11.6668 2.56371 11.3892C2.01246 11.234 1.57963 10.7825 1.43321 10.2097C1.16663 9.17016 1.16663 7.00016 1.16663 7.00016C1.16663 7.00016 1.16663 4.83016 1.43321 3.79066C1.58138 3.21608 2.01479 2.764 2.56371 2.61116C3.56238 2.3335 6.99996 2.3335 6.99996 2.3335C6.99996 2.3335 10.4393 2.3335 11.4362 2.61116C11.9875 2.76633 12.4203 3.21783 12.5667 3.79066ZM5.83329 9.04183L9.33329 7.00016L5.83329 4.9585V9.04183Z" fill="currentColor"/>
        </g>
        <defs>
            <clipPath id="clip0_1_86">
                <rect width="14" height="14" fill="currentColor"/>
            </clipPath>
        </defs>
    </g>
    <g id="dribbble">
        <g clip-path="url(#clip0_1_93)">
            <path d="M11.6602 6.75017C11.6124 5.83195 11.293 4.94861 10.7426 4.21209C10.5749 4.3927 10.3957 4.56223 10.206 4.71959C9.62317 5.20366 8.97191 5.59878 8.27338 5.89209C8.37079 6.09625 8.46004 6.294 8.53879 6.48067V6.48242C8.56101 6.53458 8.58241 6.58709 8.60296 6.63992C9.48613 6.54075 10.4171 6.57692 11.3195 6.69884C11.4397 6.71517 11.5529 6.73267 11.6602 6.75017ZM6.18563 2.40434C6.75411 3.20535 7.27833 4.03688 7.75596 4.89517C8.46938 4.614 9.05913 4.25934 9.53396 3.86442C9.69878 3.72858 9.85394 3.58142 9.99829 3.424C9.15886 2.71801 8.09681 2.33161 6.99996 2.33317C6.72698 2.33298 6.4545 2.3566 6.18563 2.40375V2.40434ZM2.48088 5.83142C2.87826 5.82139 3.27517 5.79746 3.67088 5.75967C4.62733 5.67412 5.57562 5.5138 6.50704 5.28017C6.02026 4.43446 5.4947 3.61167 4.93204 2.81442C4.33105 3.11215 3.80111 3.53566 3.37819 4.05621C2.95526 4.57677 2.64924 5.18219 2.48088 5.83142ZM3.37338 9.93692C3.59971 9.60617 3.89721 9.234 4.29213 8.82917C5.14029 7.96 6.14129 7.28334 7.29979 6.91L7.33596 6.8995C7.23971 6.68717 7.14929 6.49759 7.05829 6.31909C5.98729 6.63117 4.85913 6.826 3.73504 6.92692C3.18671 6.9765 2.69496 6.99809 2.33329 7.00159C2.33226 8.0706 2.6998 9.10729 3.37396 9.93692H3.37338ZM8.75288 11.3253C8.52792 10.1908 8.20951 9.07694 7.80088 7.995C6.63304 8.41909 5.70263 9.03917 4.98338 9.77884C4.69311 10.0719 4.43552 10.3956 4.21513 10.7443C5.01943 11.3444 5.99644 11.6679 6.99996 11.6665C7.60074 11.6674 8.196 11.5519 8.75288 11.3264V11.3253ZM9.84546 10.6982C10.7562 9.99803 11.3766 8.9865 11.5879 7.85734C11.3895 7.80775 11.1381 7.75817 10.8616 7.71967C10.2469 7.63115 9.62308 7.62467 9.00663 7.70042C9.35374 8.67974 9.634 9.68148 9.84546 10.6988V10.6982ZM6.99996 12.8332C3.77821 12.8332 1.16663 10.2216 1.16663 6.99984C1.16663 3.77809 3.77821 1.1665 6.99996 1.1665C10.2217 1.1665 12.8333 3.77809 12.8333 6.99984C12.8333 10.2216 10.2217 12.8332 6.99996 12.8332Z" fill="currentColor"/>
        </g>
        <defs>
            <clipPath id="clip0_1_93">
                <rect width="14" height="14" fill="currentColor"/>
            </clipPath>
        </defs>
    </g>
    <g id="double-square">
        <rect x="0.5" y="0.5" width="9" height="9" stroke="#FFB400"/>
        <rect x="5.5" y="5.5" width="9" height="9" stroke="#FFB400"/>
    </g>
    <g id="check">
        <g clip-path="url(#clip0_1_418)">
            <path d="M10.3689 15.172L19.8999 5.979L21.3671 7.393L10.3689 18L3.77014 11.636L5.2363 10.222L10.3689 15.172Z" fill="currentColor"/>
        </g>
        <defs>
            <clipPath id="clip0_1_418">
                <rect width="24.8852" height="24" fill="currentColor"/>
            </clipPath>
        </defs>
    </g>
    <g id="cross">
        <g clip-path="url(#clip0_1_468)">
            <path d="M12.4426 10.586L17.5752 5.63599L19.0413 7.04999L13.9088 12L19.0413 16.95L17.5752 18.364L12.4426 13.414L7.31003 18.364L5.84387 16.95L10.9765 12L5.84387 7.04999L7.31003 5.63599L12.4426 10.586Z" fill="currentColor"/>
        </g>
        <defs>
            <clipPath id="clip0_1_468">
                <rect width="24.8852" height="24" fill="currentColor"/>
            </clipPath>
        </defs>
    </g>
    <g id="star">
            <path d="M9 13.2448L12.9107 12.2343L14.5446 17.3684L9 13.2448ZM18 6.60873H11.1161L9 0L6.88393 6.60873H0L5.57143 10.7051L3.45535 17.3138L9.02679 13.2175L12.4554 10.7051L18 6.60873Z" fill="currentColor"/>
    </g>
    <g id="plus">
        <g clip-path="url(#clip0_10_1504)">
            <path d="M23.8334 23.8333V10.8333H28.1667V23.8333H41.1667V28.1666H28.1667V41.1666H23.8334V28.1666H10.8334V23.8333H23.8334Z" fill="currentColor"/>
        </g>
        <defs>
            <clipPath id="clip0_10_1504">
                <rect width="52" height="52" fill="currentColor"/>
            </clipPath>
        </defs>
    </g>
    <g id="arrow-pointer">
        <g clip-path="url(#clip0_10_1545)">
            <path d="M10.1433 10L7.78583 7.64334L8.96416 6.46417L12.5 10L8.96416 13.5358L7.78583 12.3567L10.1433 10Z" fill="currentColor"/>
        </g>
        <defs>
            <clipPath id="clip0_10_1545">
                <rect width="20" height="20" fill="currentColor"/>
            </clipPath>
        </defs>
    </g>
    <g id="location">
        <g clip-path="url(#clip0_1_997)">
            <path d="M1.5 3.75L6.75 1.5L11.25 3.75L15.9772 1.72425C16.0343 1.69979 16.0966 1.68988 16.1584 1.69541C16.2202 1.70094 16.2797 1.72173 16.3316 1.75593C16.3834 1.79013 16.4259 1.83666 16.4553 1.89135C16.4847 1.94603 16.5001 2.00716 16.5 2.06925V14.25L11.25 16.5L6.75 14.25L2.02275 16.2758C1.96569 16.3002 1.90344 16.3101 1.8416 16.3046C1.77976 16.2991 1.72026 16.2783 1.66844 16.2441C1.61662 16.2099 1.5741 16.1633 1.54471 16.1087C1.51531 16.054 1.49994 15.9928 1.5 15.9307V3.75ZM11.25 14.823V5.382L11.2013 5.403L6.75 3.177V12.618L6.79875 12.597L11.25 14.823Z" fill="currentColor"/>
        </g>
        <defs>
            <clipPath id="clip0_1_997">
                <rect width="18" height="18" fill="currentColor"/>
            </clipPath>
        </defs>
    </g>
    <g id="mail">
        <g clip-path="url(#clip0_1_969)">
            <path d="M2.25 2.25H15.75C15.9489 2.25 16.1397 2.32902 16.2803 2.46967C16.421 2.61032 16.5 2.80109 16.5 3V15C16.5 15.1989 16.421 15.3897 16.2803 15.5303C16.1397 15.671 15.9489 15.75 15.75 15.75H2.25C2.05109 15.75 1.86032 15.671 1.71967 15.5303C1.57902 15.3897 1.5 15.1989 1.5 15V3C1.5 2.80109 1.57902 2.61032 1.71967 2.46967C1.86032 2.32902 2.05109 2.25 2.25 2.25ZM9.045 8.76225L4.236 4.6785L3.26475 5.8215L9.05475 10.7378L14.7405 5.81775L13.7595 4.683L9.04575 8.76225H9.045Z" fill="currentColor"/>
        </g>
        <defs>
            <clipPath id="clip0_1_969">
                <rect width="18" height="18" fill="currentColor"/>
            </clipPath>
        </defs>
    </g>
    <g id="mobile">
        <g clip-path="url(#clip0_1_983)">
            <path d="M4.5 1.5H13.5C13.6989 1.5 13.8897 1.57902 14.0303 1.71967C14.171 1.86032 14.25 2.05109 14.25 2.25V15.75C14.25 15.9489 14.171 16.1397 14.0303 16.2803C13.8897 16.421 13.6989 16.5 13.5 16.5H4.5C4.30109 16.5 4.11032 16.421 3.96967 16.2803C3.82902 16.1397 3.75 15.9489 3.75 15.75V2.25C3.75 2.05109 3.82902 1.86032 3.96967 1.71967C4.11032 1.57902 4.30109 1.5 4.5 1.5ZM9 12.75C8.80109 12.75 8.61032 12.829 8.46967 12.9697C8.32902 13.1103 8.25 13.3011 8.25 13.5C8.25 13.6989 8.32902 13.8897 8.46967 14.0303C8.61032 14.171 8.80109 14.25 9 14.25C9.19891 14.25 9.38968 14.171 9.53033 14.0303C9.67098 13.8897 9.75 13.6989 9.75 13.5C9.75 13.3011 9.67098 13.1103 9.53033 12.9697C9.38968 12.829 9.19891 12.75 9 12.75Z" fill="currentColor"/>
        </g>
        <defs>
            <clipPath id="clip0_1_983">
                <rect width="18" height="18" fill="currentColor"/>
            </clipPath>
        </defs>
    </g>
    <g id="copyright">
        <g clip-path="url(#clip0_10_2014)">
            <path d="M12 2C17.52 2 22 6.48 22 12C22 17.52 17.52 22 12 22C6.48 22 2 17.52 2 12C2 6.48 6.48 2 12 2ZM12 4C7.58 4 4 7.58 4 12C4 16.42 7.58 20 12 20C16.42 20 20 16.42 20 12C20 7.58 16.42 4 12 4ZM12 7C13.82 7 15.413 7.973 16.288 9.428L14.574 10.457C14.3043 10.0072 13.9213 9.63605 13.4634 9.38045C13.0055 9.12484 12.4885 8.99374 11.9641 9.00023C11.4397 9.00672 10.9262 9.15056 10.4747 9.41742C10.0232 9.68428 9.6496 10.0648 9.39107 10.5211C9.13254 10.9774 8.99815 11.4935 9.00128 12.0179C9.00442 12.5424 9.14498 13.0568 9.40895 13.51C9.67292 13.9632 10.0511 14.3392 10.5057 14.6007C10.9603 14.8621 11.4756 14.9998 12 15C12.5181 15.0003 13.0275 14.8664 13.4785 14.6112C13.9294 14.356 14.3065 13.9883 14.573 13.544L16.288 14.572C15.726 15.5106 14.8716 16.239 13.8559 16.6453C12.8402 17.0517 11.7192 17.1137 10.6649 16.8217C9.61058 16.5298 8.68114 15.9 8.01914 15.029C7.35713 14.1581 6.99912 13.094 7 12C7 9.24 9.24 7 12 7Z" fill="black"/>
        </g>
        <defs>
            <clipPath id="clip0_10_2014">
                <rect width="24" height="24" fill="currentColor"/>
            </clipPath>
        </defs>
    </g>

    <!--Theme switcher-->
    <g id="theme">
        <g clip-path="url(#clip0_1_235)">
            <path d="M15.5 27C8.59625 27 3 21.4037 3 14.5C3 7.59625 8.59625 2 15.5 2C22.4037 2 28 7.59625 28 14.5C28 21.4037 22.4037 27 15.5 27ZM7.16125 20.0312C7.98286 21.2605 9.06683 22.2923 10.3351 23.0523C11.6034 23.8123 13.0245 24.2816 14.4959 24.4264C15.9674 24.5712 17.4526 24.3879 18.8448 23.8897C20.2369 23.3915 21.5012 22.5908 22.5466 21.5452C23.5921 20.4997 24.3927 19.2353 24.8908 17.8432C25.3888 16.451 25.572 14.9657 25.4271 13.4943C25.2822 12.0228 24.8127 10.6018 24.0526 9.3336C23.2925 8.06538 22.2606 6.98149 21.0312 6.16C21.5702 8.08278 21.5875 10.1144 21.0814 12.0461C20.5752 13.9778 19.5639 15.7398 18.1513 17.1513C16.74 18.5637 14.9781 19.5749 13.0467 20.081C11.1152 20.5872 9.08385 20.57 7.16125 20.0312Z" fill="currentColor"/>
        </g>
        <defs>
            <clipPath id="clip0_1_235">
                <rect width="30" height="30" fill="currentColor"/>
            </clipPath>
        </defs>
    </g>


    <!--navigation-->
    <g id="home">
        <g clip-path="url(#clip0_1_250)">
            <path d="M14.9999 14.9999C14.9999 15.1989 14.9209 15.3896 14.7803 15.5303C14.6396 15.6709 14.4489 15.7499 14.2499 15.7499H3.74994C3.55103 15.7499 3.36026 15.6709 3.21961 15.5303C3.07896 15.3896 2.99994 15.1989 2.99994 14.9999V8.24994H0.749939L8.49519 1.20894C8.63327 1.0833 8.81325 1.01367 8.99994 1.01367C9.18663 1.01367 9.36661 1.0833 9.50469 1.20894L17.2499 8.24994H14.9999V14.9999Z" fill="currentColor"/>
        </g>
        <defs>
            <clipPath id="clip0_1_250">
                <rect width="18" height="18" fill="currentColor"/>
            </clipPath>
        </defs>
    </g>
    <g id="portfolio">
        <g clip-path="url(#clip0_1_258)">
            <path d="M16.5 4.28699V4.5H11V0H11.2603C11.5338 0 11.7962 0.0889101 11.9896 0.247113L16.198 3.69035C16.3913 3.8486 16.5 4.06321 16.5 4.28699ZM10.6562 5.625C10.0891 5.625 9.625 5.24531 9.625 4.78125V0H1.03125C0.461699 0 0 0.377754 0 0.84375V17.1562C0 17.6222 0.461699 18 1.03125 18H15.4688C16.0383 18 16.5 17.6222 16.5 17.1562V5.625H10.6562ZM5.29401 14.0803C5.27317 14.0984 5.24815 14.1131 5.22039 14.1234C5.19263 14.1337 5.16266 14.1394 5.13221 14.1402C5.10175 14.141 5.0714 14.1368 5.04289 14.1281C5.01437 14.1193 4.98826 14.106 4.96603 14.0889L2.17882 11.951C2.15567 11.9332 2.13722 11.9118 2.1246 11.888C2.11199 11.8641 2.10548 11.8384 2.10548 11.8125C2.10548 11.7865 2.11199 11.7608 2.1246 11.737C2.13722 11.7132 2.15567 11.6917 2.17882 11.674L4.96603 9.53606C4.98826 9.51901 5.01437 9.50571 5.04289 9.49691C5.0714 9.48812 5.10175 9.484 5.13221 9.48481C5.16266 9.48561 5.19263 9.49131 5.22039 9.50159C5.24815 9.51187 5.27317 9.52652 5.29401 9.54471L6.13529 10.2789C6.15655 10.2975 6.17304 10.3194 6.18377 10.3432C6.19451 10.3671 6.19927 10.3925 6.19778 10.4179C6.19629 10.4433 6.18858 10.4682 6.1751 10.4911C6.16161 10.514 6.14264 10.5345 6.11931 10.5513L4.36777 11.8125L6.11931 13.0737C6.14264 13.0905 6.16161 13.111 6.1751 13.1339C6.18858 13.1568 6.19629 13.1817 6.19778 13.2071C6.19927 13.2325 6.19451 13.2579 6.18377 13.2818C6.17304 13.3056 6.15655 13.3275 6.13529 13.3461L5.29401 14.0803ZM7.49809 15.8549L6.31847 15.5747C6.25937 15.5607 6.20951 15.528 6.17985 15.4839C6.15019 15.4398 6.14316 15.3878 6.1603 15.3394L8.8003 7.89947C8.81747 7.85112 8.85741 7.81032 8.91133 7.78606C8.96525 7.76179 9.02874 7.75603 9.08785 7.77006L10.2674 8.05025C10.2967 8.05721 10.324 8.06881 10.3478 8.08439C10.3716 8.09998 10.3914 8.11924 10.406 8.14109C10.4207 8.16294 10.43 8.18694 10.4334 8.21172C10.4367 8.2365 10.434 8.26158 10.4256 8.28552L7.78555 15.7255C7.77707 15.7494 7.76291 15.7718 7.74387 15.7913C7.72483 15.8107 7.70129 15.8269 7.6746 15.8389C7.6479 15.851 7.61857 15.8586 7.58829 15.8613C7.558 15.864 7.52735 15.8619 7.49809 15.8549ZM14.4071 11.951L11.6199 14.0889C11.5977 14.106 11.5716 14.1193 11.5431 14.1281C11.5145 14.1368 11.4842 14.141 11.4537 14.1402C11.4233 14.1394 11.3933 14.1337 11.3655 14.1234C11.3378 14.1131 11.3128 14.0984 11.2919 14.0803L10.4506 13.346C10.4293 13.3275 10.4129 13.3056 10.4021 13.2817C10.3914 13.2579 10.3866 13.2325 10.3881 13.2071C10.3896 13.1817 10.3973 13.1568 10.4108 13.1338C10.4243 13.1109 10.4433 13.0905 10.4666 13.0737L12.2182 11.8125L10.4666 10.5513C10.4433 10.5345 10.4243 10.514 10.4108 10.4911C10.3974 10.4682 10.3896 10.4433 10.3882 10.4179C10.3867 10.3925 10.3914 10.3671 10.4022 10.3432C10.4129 10.3194 10.4294 10.2975 10.4506 10.2789L11.292 9.54471C11.3128 9.52652 11.3378 9.51187 11.3656 9.50159C11.3934 9.49131 11.4233 9.48561 11.4538 9.48481C11.4842 9.484 11.5146 9.48812 11.5431 9.49691C11.5716 9.50571 11.5977 9.51901 11.62 9.53606L14.4072 11.674C14.4303 11.6917 14.4488 11.7132 14.4614 11.737C14.474 11.7608 14.4805 11.7865 14.4805 11.8125C14.4805 11.8385 14.474 11.8641 14.4613 11.888C14.4487 11.9118 14.4303 11.9332 14.4071 11.951Z" fill="currentColor"/>
        </g>
        <defs>
            <clipPath id="clip0_1_258">
                <rect width="16.5" height="18" fill="currentColor"/>
            </clipPath>
        </defs>
    </g>
    <g id="education">
        <g clip-path="url(#clip0_1_264)">
            <path d="M12.7636 11.272L9.25 14.6259L5.73638 11.272C3.10301 11.381 1 13.4376 1 15.9759V16.3134C1 17.245 1.79185 18.0009 2.76786 18.0009H15.7321C16.7081 18.0009 17.5 17.245 17.5 16.3134V15.9759C17.5 13.4376 15.397 11.381 12.7636 11.272ZM1.50089 2.80635L1.73661 2.85909V4.91221C1.47879 5.05987 1.29464 5.31651 1.29464 5.62589C1.29464 5.9212 1.46406 6.16729 1.70346 6.31846L1.12891 8.5087C1.06629 8.75128 1.20625 9.00089 1.40882 9.00089H2.94833C3.15089 9.00089 3.29085 8.75128 3.22824 8.5087L2.65368 6.31846C2.89308 6.16729 3.0625 5.9212 3.0625 5.62589C3.0625 5.31651 2.87835 5.05987 2.62054 4.91221V3.06299L5.05134 3.62198C4.7346 4.22667 4.53571 4.90167 4.53571 5.62589C4.53571 8.11143 6.64609 10.1259 9.25 10.1259C11.8539 10.1259 13.9643 8.11143 13.9643 5.62589C13.9643 4.90167 13.7691 4.22667 13.4487 3.62198L16.9954 2.80635C17.6657 2.65166 17.6657 1.85362 16.9954 1.69893L9.98292 0.0817384C9.50413 -0.0272461 8.99955 -0.0272461 8.52076 0.0817384L1.50089 1.69541C0.834263 1.8501 0.834263 2.65166 1.50089 2.80635Z" fill="currentColor"/>
        </g>
        <defs>
            <clipPath id="clip0_1_264">
                <rect width="18" height="18" fill="currentColor"/>
            </clipPath>
        </defs>
    </g>
    <g id="work history">
        <g clip-path="url(#clip0_1_271)">
            <path d="M6.75 9.75V12H11.25V9.75H16.5V15C16.5 15.1989 16.421 15.3897 16.2803 15.5303C16.1397 15.671 15.9489 15.75 15.75 15.75H2.25C2.05109 15.75 1.86032 15.671 1.71967 15.5303C1.57902 15.3897 1.5 15.1989 1.5 15V9.75H6.75ZM8.25 8.25H9.75V10.5H8.25V8.25ZM5.25 3.75V1.5C5.25 1.30109 5.32902 1.11032 5.46967 0.96967C5.61032 0.829018 5.80109 0.75 6 0.75H12C12.1989 0.75 12.3897 0.829018 12.5303 0.96967C12.671 1.11032 12.75 1.30109 12.75 1.5V3.75H15.75C15.9489 3.75 16.1397 3.82902 16.2803 3.96967C16.421 4.11032 16.5 4.30109 16.5 4.5V8.25H11.25V6.75H6.75V8.25H1.5V4.5C1.5 4.30109 1.57902 4.11032 1.71967 3.96967C1.86032 3.82902 2.05109 3.75 2.25 3.75H5.25ZM6.75 2.25V3.75H11.25V2.25H6.75Z" fill="currentColor"/>
        </g>
        <defs>
            <clipPath id="clip0_1_271">
                <rect width="18" height="18" fill="currentColor"/>
            </clipPath>
        </defs>
    </g>
    <g id="blog">
        <g clip-path="url(#clip0_1_279)">
            <path d="M15.75 1.5C4.5 1.5 3 12 2.25 16.5H3.7485C4.248 14.0002 5.49825 12.6255 7.5 12.375C10.5 12 12.75 9.375 13.5 7.125L12.375 6.375L13.125 5.625C13.875 4.875 14.628 3.75 15.75 1.5Z" fill="currentColor"/>
        </g>
        <defs>
            <clipPath id="clip0_1_279">
                <rect width="18" height="18" fill="currentColor"/>
            </clipPath>
        </defs>
    </g>
    <g id="contacts">
        <g clip-path="url(#clip0_1_287)">
            <path d="M4.84125 14.25L1.5 16.875V3C1.5 2.80109 1.57902 2.61032 1.71967 2.46967C1.86032 2.32902 2.05109 2.25 2.25 2.25H15.75C15.9489 2.25 16.1397 2.32902 16.2803 2.46967C16.421 2.61032 16.5 2.80109 16.5 3V13.5C16.5 13.6989 16.421 13.8897 16.2803 14.0303C16.1397 14.171 15.9489 14.25 15.75 14.25H4.84125Z" fill="currentColor"/>
        </g>
        <defs>
            <clipPath id="clip0_1_287">
                <rect width="18" height="18" fill="currentColor"/>
            </clipPath>
        </defs>
    </g>
    <g id="coding">
        <path d="M63.2188 7.4375H4.78125C3.79531 7.43859 2.85007 7.83074 2.1529 8.5279C1.45574 9.22507 1.06359 10.1703 1.0625 11.1562V48.3438C1.06359 49.3297 1.45574 50.2749 2.1529 50.9721C2.85007 51.6693 3.79531 52.0614 4.78125 52.0625H26.0552L24.7802 55.25H19.125C18.8432 55.25 18.573 55.3619 18.3737 55.5612C18.1744 55.7605 18.0625 56.0307 18.0625 56.3125V58.4375H11.6875C11.4057 58.4375 11.1355 58.5494 10.9362 58.7487C10.7369 58.948 10.625 59.2182 10.625 59.5C10.625 59.7818 10.7369 60.052 10.9362 60.2513C11.1355 60.4506 11.4057 60.5625 11.6875 60.5625H56.3125C56.5943 60.5625 56.8645 60.4506 57.0638 60.2513C57.2631 60.052 57.375 59.7818 57.375 59.5C57.375 59.2182 57.2631 58.948 57.0638 58.7487C56.8645 58.5494 56.5943 58.4375 56.3125 58.4375H49.9375V56.3125C49.9375 56.0307 49.8256 55.7605 49.6263 55.5612C49.427 55.3619 49.1568 55.25 48.875 55.25H43.2198L41.9448 52.0625H63.2188C64.2047 52.0614 65.1499 51.6693 65.8471 50.9721C66.5443 50.2749 66.9364 49.3297 66.9375 48.3438V11.1562C66.9364 10.1703 66.5443 9.22507 65.8471 8.5279C65.1499 7.83074 64.2047 7.43859 63.2188 7.4375ZM47.8125 57.375V58.4375H20.1875V57.375H47.8125ZM27.0698 55.25L28.3448 52.0625H39.6552L40.9302 55.25H27.0698ZM64.8125 48.3438C64.8121 48.7663 64.6441 49.1715 64.3453 49.4703C64.0465 49.7691 63.6413 49.9371 63.2188 49.9375H4.78125C4.35867 49.9371 3.9535 49.7691 3.65469 49.4703C3.35588 49.1715 3.18785 48.7663 3.1875 48.3438V45.6875H64.8125V48.3438ZM64.8125 43.5625H3.1875V11.1562C3.18785 10.7337 3.35588 10.3285 3.65469 10.0297C3.9535 9.73088 4.35867 9.56285 4.78125 9.5625H63.2188C63.6413 9.56285 64.0465 9.73088 64.3453 10.0297C64.6441 10.3285 64.8121 10.7337 64.8125 11.1562V43.5625Z" fill="currentColor"/>
        <path d="M29.167 34.888C29.2836 34.9646 29.4142 35.0174 29.5513 35.0435C29.6884 35.0696 29.8293 35.0684 29.9659 35.04C30.1025 35.0117 30.2322 34.9567 30.3476 34.8782C30.4629 34.7997 30.5617 34.6992 30.6383 34.5826L39.0055 21.8326C39.1601 21.597 39.2148 21.3096 39.1576 21.0337C39.1003 20.7578 38.9358 20.5159 38.7003 20.3613C38.4647 20.2066 38.1773 20.1519 37.9014 20.2092C37.6255 20.2664 37.3836 20.4309 37.229 20.6665L28.8618 33.4165C28.7852 33.5331 28.7323 33.6637 28.7062 33.8008C28.68 33.9379 28.6812 34.0788 28.7095 34.2155C28.7379 34.3521 28.7928 34.4819 28.8713 34.5973C28.9498 34.7127 29.0503 34.8115 29.167 34.888Z" fill="currentColor"/>
        <path d="M40.7573 34.8165C40.9738 34.9969 41.2531 35.0839 41.5337 35.0583C41.8143 35.0328 42.0733 34.8968 42.2537 34.6804L47.5662 28.3054C47.7253 28.1144 47.8124 27.8738 47.8124 27.6252C47.8124 27.3767 47.7253 27.136 47.5662 26.9451L42.2537 20.5701C42.1647 20.462 42.0551 20.3726 41.9314 20.307C41.8077 20.2413 41.6723 20.2008 41.5328 20.1878C41.3934 20.1747 41.2528 20.1893 41.119 20.2307C40.9853 20.2722 40.861 20.3397 40.7534 20.4293C40.6459 20.519 40.5571 20.629 40.4921 20.7531C40.4272 20.8772 40.3875 21.0128 40.3752 21.1523C40.3629 21.2918 40.3783 21.4324 40.4205 21.5659C40.4627 21.6994 40.5309 21.8233 40.6212 21.9304L45.3668 27.6252L40.6212 33.3201C40.4408 33.5366 40.3538 33.8159 40.3793 34.0965C40.4049 34.3771 40.5408 34.6361 40.7573 34.8165Z" fill="currentColor"/>
        <path d="M25.7462 34.6804C25.8352 34.7884 25.9448 34.8779 26.0685 34.9435C26.1922 35.0091 26.3276 35.0496 26.4671 35.0627C26.6065 35.0758 26.7471 35.0612 26.8809 35.0197C27.0146 34.9782 27.1389 34.9107 27.2465 34.8211C27.354 34.7315 27.4428 34.6214 27.5078 34.4974C27.5727 34.3733 27.6124 34.2376 27.6247 34.0981C27.637 33.9586 27.6216 33.8181 27.5794 33.6845C27.5372 33.551 27.469 33.4272 27.3787 33.3201L22.6331 27.6252L27.3787 21.9304C27.469 21.8233 27.5372 21.6994 27.5794 21.5659C27.6216 21.4324 27.637 21.2918 27.6247 21.1523C27.6124 21.0128 27.5727 20.8772 27.5078 20.7531C27.4428 20.629 27.354 20.519 27.2465 20.4293C27.1389 20.3397 27.0146 20.2722 26.8809 20.2307C26.7471 20.1893 26.6065 20.1747 26.4671 20.1878C26.3276 20.2008 26.1922 20.2413 26.0685 20.307C25.9448 20.3726 25.8352 20.462 25.7462 20.5701L20.4337 26.9451C20.2746 27.136 20.1875 27.3767 20.1875 27.6252C20.1875 27.8737 20.2746 28.1144 20.4337 28.3054L25.7462 34.6804Z" fill="currentColor"/>
    </g>
    <g id="illustration">
        <g clip-path="url(#clip0_1_313)">
            <path d="M31.6094 49.3384C31.0591 49.3384 30.6133 49.7844 30.6133 50.3345C30.6133 50.8846 31.0591 51.3306 31.6094 51.3306H36.3906C36.9409 51.3306 37.3867 50.8846 37.3867 50.3345C37.3867 49.7844 36.9409 49.3384 36.3906 49.3384H31.6094Z" fill="currentColor"/>
            <path d="M11.9531 33.8716H18.5374C18.9396 34.9183 19.9528 35.6646 21.1394 35.6646C22.3259 35.6646 23.3391 34.9183 23.7413 33.8716H25.0573C25.6076 33.8716 26.0534 33.4256 26.0534 32.8755C26.0534 32.3254 25.6076 31.8794 25.0573 31.8794H23.7413C23.3391 30.8327 22.3259 30.0864 21.1394 30.0864C19.9528 30.0864 18.9396 30.8327 18.5374 31.8794H11.9531C11.4029 31.8794 10.957 32.3254 10.957 32.8755C10.957 33.4256 11.4029 33.8716 11.9531 33.8716ZM21.1394 32.0786C21.5788 32.0786 21.9362 32.436 21.9362 32.8755C21.9362 33.315 21.5788 33.6724 21.1394 33.6724C20.6999 33.6724 20.3425 33.315 20.3425 32.8755C20.3425 32.436 20.6999 32.0786 21.1394 32.0786Z" fill="currentColor"/>
            <path d="M11.9531 28.1606H13.2249C13.6271 29.2073 14.6403 29.9536 15.8269 29.9536C17.0134 29.9536 18.0266 29.2073 18.4288 28.1606H25.0573C25.6076 28.1606 26.0534 27.7147 26.0534 27.1646C26.0534 26.6144 25.6076 26.1685 25.0573 26.1685H18.4288C18.0266 25.1218 17.0134 24.3755 15.8269 24.3755C14.6403 24.3755 13.6271 25.1218 13.2249 26.1685H11.9531C11.4029 26.1685 10.957 26.6144 10.957 27.1646C10.957 27.7147 11.4029 28.1606 11.9531 28.1606ZM15.8269 26.3677C16.2663 26.3677 16.6237 26.7251 16.6237 27.1646C16.6237 27.604 16.2663 27.9614 15.8269 27.9614C15.3874 27.9614 15.03 27.604 15.03 27.1646C15.03 26.7251 15.3874 26.3677 15.8269 26.3677Z" fill="currentColor"/>
            <path d="M25.2566 18.9966C25.8067 18.9966 26.2527 18.5506 26.2527 18.0005C26.2527 17.4504 25.8067 17.0044 25.2566 17.0044C24.7065 17.0044 24.2605 17.4504 24.2605 18.0005C24.2605 18.5506 24.7065 18.9966 25.2566 18.9966Z" fill="currentColor"/>
            <path d="M22.5117 18.9966C23.0618 18.9966 23.5078 18.5506 23.5078 18.0005C23.5078 17.4504 23.0618 17.0044 22.5117 17.0044C21.9616 17.0044 21.5156 17.4504 21.5156 18.0005C21.5156 18.5506 21.9616 18.9966 22.5117 18.9966Z" fill="currentColor"/>
            <path d="M19.7668 18.9966C20.317 18.9966 20.7629 18.5506 20.7629 18.0005C20.7629 17.4504 20.317 17.0044 19.7668 17.0044C19.2167 17.0044 18.7708 17.4504 18.7708 18.0005C18.7708 18.5506 19.2167 18.9966 19.7668 18.9966Z" fill="currentColor"/>
            <path d="M65.0117 6.7048H64.6386L64.9169 6.42655C65.7503 5.59316 65.7503 4.23701 64.9169 3.40361L62.7364 1.22309C61.903 0.389828 60.547 0.389828 59.7134 1.22309L54.2321 6.70466H2.98828C1.34061 6.70466 0 8.04514 0 9.69294V51.0593C0 53.0732 1.63838 54.7116 3.65234 54.7116H27.2458V61.758H22.4453C21.1638 61.758 20.1211 62.8007 20.1211 64.0822V65.0775C20.1211 66.359 21.1638 67.4017 22.4453 67.4017H45.5547C46.8362 67.4017 47.8789 66.359 47.8789 65.0775V64.0822C47.8789 62.8007 46.8362 61.758 45.5547 61.758H40.7542V54.7116H51.3984C51.9487 54.7116 52.3945 54.2656 52.3945 53.7155C52.3945 53.1654 51.9487 52.7194 51.3984 52.7194H3.65234C2.73687 52.7194 1.99219 51.9747 1.99219 51.0593V48.1108H66.0078V51.0593C66.0078 51.9747 65.2631 52.7194 64.3477 52.7194H56.0469C55.4966 52.7194 55.0508 53.1654 55.0508 53.7155C55.0508 54.2656 55.4966 54.7116 56.0469 54.7116H64.3477C66.3616 54.7116 68 53.0732 68 51.0593V9.69308C68 8.04541 66.6594 6.7048 65.0117 6.7048ZM45.5547 63.7503C45.7378 63.7503 45.8867 63.8993 45.8867 64.0823V65.0776C45.8867 65.2606 45.7378 65.4096 45.5547 65.4096H22.4453C22.2622 65.4096 22.1133 65.2606 22.1133 65.0776V64.0823C22.1133 63.8993 22.2622 63.7503 22.4453 63.7503H45.5547ZM29.238 54.7119H38.7621V61.7582H29.238V54.7119ZM61.1222 2.63197C61.179 2.57526 61.2712 2.57539 61.3278 2.63197L63.5081 4.81235C63.5649 4.86906 63.5649 4.96137 63.5081 5.01795L61.4276 7.09845L59.0417 4.71248L61.1222 2.63197ZM57.6329 6.12122L60.0188 8.50719L59.324 9.20194L56.9382 6.81596L57.6329 6.12122ZM55.5294 8.2247L57.9154 10.6107L46.1282 22.3979L43.7422 20.0119L55.5294 8.2247ZM54.0547 17.3315C55.4095 17.3315 56.5117 18.4337 56.5117 19.7886C56.5117 21.1434 55.4095 22.2456 54.0547 22.2456C52.6999 22.2456 51.5977 21.1434 51.5977 19.7886C51.5977 19.7727 51.5998 19.7575 51.6 19.7417L54.0082 17.3339C54.0237 17.3336 54.039 17.3315 54.0547 17.3315ZM44.3984 23.4857L41.4504 24.6897L42.6545 21.7417L44.3984 23.4857ZM66.0078 46.1189H1.99219V9.69308C1.99219 9.1439 2.43897 8.69698 2.98828 8.69698H52.2401L50.7212 10.2158H16.8672C16.3169 10.2158 15.8711 10.6618 15.8711 11.2119C15.8711 11.762 16.3169 12.208 16.8672 12.208H48.7292L41.7033 19.2343C41.5047 19.4346 41.3494 19.6684 41.2425 19.93L39.0175 25.3774C38.8134 25.8777 38.9284 26.4479 39.3105 26.8299C39.567 27.0863 39.908 27.2223 40.2559 27.2223C40.4264 27.2223 40.5984 27.1897 40.7629 27.1226L46.2103 24.8977C46.4645 24.7939 46.6918 24.6435 46.8884 24.4529L49.9186 21.4231C50.5714 23.0698 52.1784 24.2379 54.0548 24.2379C56.5081 24.2379 58.504 22.242 58.504 19.7887C58.504 17.9126 57.3362 16.3057 55.6897 15.6528L59.1348 12.2081H62.4968V42.608H61.9688L58.359 36.3556C58.0841 35.879 57.4745 35.7158 56.9983 35.991C56.5219 36.2661 56.3587 36.8753 56.6338 37.3517L59.6685 42.608H45.7538L44.2614 40.0231L51.2187 27.9726L54.3094 33.326C54.5846 33.8024 55.1938 33.9658 55.6701 33.6906C56.1465 33.4155 56.3097 32.8063 56.0347 32.3299L52.7373 26.6188C52.4203 26.0698 51.8527 25.742 51.2186 25.742C50.5846 25.742 50.0168 26.0698 49.6998 26.6188L43.1109 38.031L34.6569 23.3883C34.3399 22.8393 33.7722 22.5115 33.138 22.5115C32.5041 22.5115 31.9364 22.8393 31.6193 23.3883L29.3733 27.2785V16.6013C29.3733 15.3198 28.3306 14.2771 27.0491 14.2771H9.96094C8.67943 14.2771 7.63672 15.3198 7.63672 16.6013V38.3826C7.63672 39.298 8.3814 40.0427 9.29688 40.0427H22.0042L20.5231 42.6081H5.50335V12.208H12.2188C12.769 12.208 13.2148 11.762 13.2148 11.2119C13.2148 10.6618 12.769 10.2158 12.2188 10.2158H5.17132C4.25584 10.2158 3.51116 10.9605 3.51116 11.876V42.9399C3.51116 43.8554 4.25584 44.6001 5.17132 44.6001H62.8288C63.7443 44.6001 64.489 43.8554 64.489 42.9399V11.876C64.489 10.9605 63.7443 10.2158 62.8288 10.2158H61.1272L62.6463 8.69698H65.0117C65.561 8.69698 66.0078 9.1439 66.0078 9.69308V46.1189ZM27.3816 22.1178V38.0503H9.62891V22.1178H27.3816ZM9.62891 20.1256V16.6011C9.62891 16.418 9.77779 16.269 9.96094 16.269H27.0495C27.2327 16.269 27.3816 16.418 27.3816 16.6011V20.1256H9.62891ZM24.3047 40.0425H27.7136C28.6291 40.0425 29.3737 39.2978 29.3737 38.3823V36.2723C29.6229 36.3918 29.9003 36.4565 30.1909 36.4565C30.8709 36.4565 31.4797 36.1048 31.8196 35.5161L33.5148 32.58C33.5661 32.4913 33.6445 32.4725 33.7009 32.4725C33.7576 32.4725 33.836 32.4913 33.8871 32.58L34.9322 34.3901C35.2722 34.9791 35.8812 35.3307 36.5613 35.3307C37.2413 35.3307 37.8502 34.9791 38.1901 34.3902L38.4496 33.9408L43.4535 42.6077H22.8236L24.3047 40.0425ZM29.3737 32.9379V31.2626L33.1386 24.7419L37.2993 31.9486L36.5612 33.2271L35.6123 31.5838C35.2134 30.8927 34.4988 30.4802 33.7008 30.4802C32.9028 30.4802 32.1883 30.8927 31.7893 31.5838L30.1905 34.3529L29.3737 32.9379Z" fill="currentColor"/>
        </g>
        <defs>
            <clipPath id="clip0_1_313">
                <rect width="68" height="68" fill="currentColor"/>
            </clipPath>
        </defs>
    </g>
    <g id="microphone">
        <g clip-path="url(#clip0_1_331)">
            <path d="M37 0C29.0176 0 22.5217 6.7533 22.5217 15.0526V37C22.5217 45.3009 29.0176 52.0526 37 52.0526C44.9823 52.0526 51.4782 45.3009 51.4782 37V15.0526C51.4782 6.7533 44.9823 0 37 0ZM37 48.8352C31.3116 48.8352 26.6062 44.3743 25.8549 38.6087H48.1434C47.3938 44.3759 42.6883 48.8352 37 48.8352ZM48.2609 35.3913H25.7391V15.0526C25.7391 8.52609 30.7904 3.21739 37 3.21739C43.2095 3.21739 48.2609 8.52609 48.2609 15.0526V35.3913Z" fill="currentColor"/>
            <path d="M59.5217 28.9565C58.6337 28.9565 57.913 29.6772 57.913 30.5652V37C57.913 48.5312 48.5311 57.9131 37 57.9131C25.4689 57.9131 16.087 48.5312 16.087 37V30.5652C16.087 29.6772 15.3663 28.9565 14.4783 28.9565C13.5903 28.9565 12.8696 29.6772 12.8696 30.5652V37C12.8696 49.7618 22.8354 60.2151 35.3913 61.0484V70.7826H27.3478C26.4598 70.7826 25.7391 71.5033 25.7391 72.3913C25.7391 73.2793 26.4598 74 27.3478 74H46.6522C47.5402 74 48.2609 73.2793 48.2609 72.3913C48.2609 71.5033 47.5402 70.7826 46.6522 70.7826H38.6087V61.0484C51.1646 60.2151 61.1304 49.7618 61.1304 37V30.5652C61.1304 29.6772 60.4097 28.9565 59.5217 28.9565Z" fill="currentColor"/>
        </g>
        <defs>
            <clipPath id="clip0_1_331">
                <rect width="74" height="74" fill="currentColor"/>
            </clipPath>
        </defs>
    </g>
    <g id="download">
        <g clip-path="url(#clip0_1_1450)">
            <path d="M2.33332 12.9523H11.6667V8.28564H12.8333V13.619C12.8333 13.7958 12.7719 13.9654 12.6625 14.0904C12.5531 14.2154 12.4047 14.2856 12.25 14.2856H1.74999C1.59528 14.2856 1.44691 14.2154 1.33751 14.0904C1.22811 13.9654 1.16666 13.7958 1.16666 13.619V8.28564H2.33332V12.9523ZM8.16666 6.28564H11.0833L6.99999 10.9523L2.91666 6.28564H5.83332V2.28564H8.16666V6.28564Z" fill="currentColor"/>
        </g>
        <defs>
            <clipPath id="clip0_1_1450">
                <rect width="14" height="16" fill="currentColor" transform="translate(0 0.285645)"/>
            </clipPath>
        </defs>
    </g>
    <g id="arrow-back">
        <path d="M0.646446 3.64645C0.451185 3.84171 0.451185 4.15829 0.646446 4.35355L3.82843 7.53553C4.02369 7.7308 4.34027 7.7308 4.53553 7.53553C4.7308 7.34027 4.7308 7.02369 4.53553 6.82843L1.70711 4L4.53553 1.17157C4.7308 0.976311 4.7308 0.659728 4.53553 0.464466C4.34027 0.269204 4.02369 0.269204 3.82843 0.464466L0.646446 3.64645ZM26 3.5L1 3.5V4.5L26 4.5V3.5Z" fill="currentColor"/>
    </g>
    <g id="arrow-attention">
        <path d="M17.07 16.363L11.414 22.021L10 20.606L15.657 14.95L10.707 10H22.02V21.313L17.07 16.363Z" fill="currentColor"/>
    </g>
    <g id="arrow-follow">
        <g clip-path="url(#clip0_1_1623)">
            <path d="M10.7814 7.33312L7.20535 3.75712L8.14802 2.81445L13.3334 7.99979L8.14802 13.1851L7.20535 12.2425L10.7814 8.66645H2.66669V7.33312H10.7814Z" fill="currentColor"/>
        </g>
        <defs>
            <clipPath id="clip0_1_1623">
                <rect width="16" height="16" fill="currentColor"/>
            </clipPath>
        </defs>
    </g>
    <!--Скрепка для файла-->
    <g id="clip">
            <path d="M11.2867 8.71333C10.6041 8.03103 9.67846 7.64774 8.71334 7.64774C7.74821 7.64774 6.82259 8.03103 6.14 8.71333L3.56584 11.2867C2.88324 11.9693 2.49976 12.8951 2.49976 13.8604C2.49976 14.8258 2.88324 15.7516 3.56584 16.4342C4.24844 17.1168 5.17424 17.5002 6.13959 17.5002C7.10493 17.5002 8.03074 17.1168 8.71334 16.4342L10 15.1475" stroke="currentColor" stroke-width="1.66667" stroke-linecap="round" stroke-linejoin="round"/>
            <path d="M8.71338 11.2867C9.39597 11.969 10.3216 12.3523 11.2867 12.3523C12.2518 12.3523 13.1775 11.969 13.86 11.2867L16.4342 8.71334C17.1168 8.03074 17.5003 7.10493 17.5003 6.13959C17.5003 5.17424 17.1168 4.24844 16.4342 3.56584C15.7516 2.88324 14.8258 2.49976 13.8605 2.49976C12.8951 2.49976 11.9693 2.88324 11.2867 3.56584L10 4.8525" stroke="currentColor" stroke-width="1.66667" stroke-linecap="round" stroke-linejoin="round"/>
    </g>

    <g id="github">
            <path fill-rule="evenodd" clip-rule="evenodd" d="M10 0C4.475 0 0 4.475 0 10C0 14.425 2.8625 18.1625 6.8375 19.4875C7.3375 19.575 7.525 19.275 7.525 19.0125C7.525 18.775 7.5125 17.9875 7.5125 17.15C5 17.6125 4.35 16.5375 4.15 15.975C4.0375 15.6875 3.55 14.8 3.125 14.5625C2.775 14.375 2.275 13.9125 3.1125 13.9C3.9 13.8875 4.4625 14.625 4.65 14.925C5.55 16.4375 6.9875 16.0125 7.5625 15.75C7.65 15.1 7.9125 14.6625 8.2 14.4125C5.975 14.1625 3.65 13.3 3.65 9.475C3.65 8.3875 4.0375 7.4875 4.675 6.7875C4.575 6.5375 4.225 5.5125 4.775 4.1375C4.775 4.1375 5.6125 3.875 7.525 5.1625C8.325 4.9375 9.175 4.825 10.025 4.825C10.875 4.825 11.725 4.9375 12.525 5.1625C14.4375 3.8625 15.275 4.1375 15.275 4.1375C15.825 5.5125 15.475 6.5375 15.375 6.7875C16.0125 7.4875 16.4 8.375 16.4 9.475C16.4 13.3125 14.0625 14.1625 11.8375 14.4125C12.2 14.725 12.5125 15.325 12.5125 16.2625C12.5125 17.6 12.5 18.675 12.5 19.0125C12.5 19.275 12.6875 19.5875 13.1875 19.4875C15.1726 18.8173 16.8976 17.5414 18.1197 15.8395C19.3418 14.1375 19.9994 12.0952 20 10C20 4.475 15.525 0 10 0Z" fill="currentColor"/>

    </g>

    <!--стрелочка для меню-->
    <g id="menu-arrow">
        <path fill="CurrentColor" d="M9.4 233.4c-12.5 12.5-12.5 32.8 0 45.3l160 160c12.5 12.5 32.8 12.5 45.3 0s12.5-32.8 0-45.3L109.2 288 416 288c17.7 0 32-14.3 32-32s-14.3-32-32-32l-306.7 0L214.6 118.6c12.5-12.5 12.5-32.8 0-45.3s-32.8-12.5-45.3 0l-160 160z"/>
    </g>

    <!--иконки для скиллов-->
    <g id="html5">
            <path fill-rule="evenodd" clip-rule="evenodd" d="M18.3125 42.0645L27.2623 6.6875L31.4375 7.87241L22.4878 43.3125L18.3125 42.0645Z" fill="currentColor"/>
            <path fill-rule="evenodd" clip-rule="evenodd" d="M13.5025 12.6875L16.5625 15.9278L7.99501 25.0001L16.5625 34.0721L13.5025 37.3125L1.875 25.0001L13.5025 12.6875Z" fill="currentColor"/>
            <path fill-rule="evenodd" clip-rule="evenodd" d="M36.4976 12.6875L33.4375 15.9278L42.0051 25.0001L33.4375 34.0721L36.4976 37.3125L48.125 25.0001L36.4976 12.6875Z" fill="currentColor"/>
    </g>
    <path id="css3" d="M38.0508 10.8437L12.946 10.8377L13.3515 15.7547L32.6381 15.7577L32.1519 20.8502H19.5035L19.9608 25.6742H31.7358L31.0392 32.2806L25.4969 33.7886L19.8663 32.2701L19.508 28.3134H14.5359L15.0877 35.5411L25.4969 38.7341L35.7309 35.8652L38.0493 10.8452L38.0508 10.8437ZM5.49844 2.56873H45.4984L41.86 42.9999L25.4542 47.5687L9.13993 42.9968L5.49844 2.56873Z" fill="currentColor"/>
    <g id="react">
            <g clip-path="url(#clip0_20_1854)">
                <path d="M47.8125 25C47.8125 22.0833 44.6875 19.375 39.4792 17.5L38.5417 17.1875V16.7708C39.6875 11.0416 38.8542 6.7708 36.25 5.2083C33.6458 3.6458 29.7917 5.10414 25.625 8.74997L25 9.37497L24.7917 9.16664H24.5833C20.3125 5.2083 16.1458 3.85414 13.5417 5.31247C10.9375 6.7708 10.2083 10.8333 11.25 16.1458C11.3596 16.4838 11.4295 16.8333 11.4583 17.1875L10.3125 17.6041C5.20833 19.375 2.1875 22.0833 2.1875 25C2.1875 27.9166 5.52083 30.8333 10.7292 32.7083L11.4583 32.9166C11.3296 33.2854 11.2593 33.672 11.25 34.0625C10.2083 39.2708 11.1458 43.2291 13.5417 44.6875C15.9375 46.1458 20.3125 44.7916 24.4792 41.1458L25.1042 40.625L25.9375 41.4583C28.8542 43.9583 31.7708 45.3125 34.0625 45.3125C34.8708 45.3309 35.6671 45.1137 36.3542 44.6875C38.9583 43.2291 39.8958 38.9583 38.75 33.5416V33.3333C38.705 33.1619 38.6702 32.988 38.6458 32.8125H38.9583C44.4792 30.8333 47.8125 28.0208 47.8125 25ZM44.7917 25C44.7917 26.25 42.5 28.4375 38.0208 29.8958H37.8125C37.2664 28.2202 36.6051 26.5843 35.8333 25C36.5625 23.3333 37.1875 21.6666 37.7083 20.1041L38.5417 20.3125C42.7083 21.7708 44.7917 23.75 44.7917 25ZM27.9167 39.1666L27.0833 38.5416C28.2761 37.2201 29.3891 35.8287 30.4167 34.375L35.7292 33.5416C35.8333 33.75 35.8333 33.9583 35.9375 34.0625C36.3087 35.9492 36.379 37.8829 36.1458 39.7916C35.9995 40.7045 35.5608 41.5452 34.8958 42.1875C33.8542 42.8125 31.0417 41.9791 27.9167 39.1666ZM26.5625 34.5833L25.1042 36.4583L23.4375 34.5833H26.5625ZM12.2917 20C12.8152 21.7174 13.4771 23.3895 14.2708 25C13.4765 26.646 12.8146 28.3528 12.2917 30.1041L11.6667 29.8958C9.84256 29.3201 8.1454 28.4008 6.66667 27.1875C6.28377 26.9455 5.95605 26.6257 5.7048 26.2488C5.45356 25.872 5.2844 25.4465 5.20833 25C5.20833 23.75 7.29167 21.7708 11.25 20.4166L12.2917 20ZM23.4375 15.4166L25 13.6458L26.5625 15.4166H23.4375ZM34.8958 7.81247C36.0417 8.43747 36.6667 11.5625 35.7292 16.1458C35.734 16.2022 35.7272 16.2591 35.7093 16.3128C35.6914 16.3665 35.6627 16.416 35.625 16.4583L30.4167 15.625C29.3891 14.1712 28.2761 12.7799 27.0833 11.4583L27.7083 10.9375C31.0417 8.0208 33.75 7.18747 34.8958 7.81247ZM17.5 18.8541L16.6667 20.2083L15.9375 21.5625C15.625 20.8333 15.4167 20.1041 15.1042 19.2708L17.5 18.8541ZM15.1042 30.7291C15.4167 30 15.625 29.2708 15.9375 28.4375L16.6667 29.7916L17.5 31.1458L15.1042 30.7291ZM32.5 25C31.9699 26.142 31.3788 27.2548 30.7292 28.3333C30.1042 29.4791 29.375 30.5208 28.75 31.5625H21.25C20.5208 30.4166 19.7917 29.375 19.2708 28.3333C18.6161 27.2577 18.0248 26.1447 17.5 25C18.0054 23.8458 18.5974 22.7315 19.2708 21.6666C19.8693 20.5874 20.5301 19.544 21.25 18.5416C23.7457 18.3334 26.2543 18.3334 28.75 18.5416C29.4792 19.5833 30.1042 20.625 30.7292 21.6666C31.4026 22.7315 31.9946 23.8458 32.5 25ZM33.3333 20.2083L32.5 18.8541L34.8958 19.375C34.6639 20.1208 34.3856 20.8514 34.0625 21.5625L33.3333 20.2083ZM32.5 31.1458L33.3333 29.7916L34.0625 28.3333L35 30.7291L32.5 31.1458ZM22.8125 11.3541H22.9167L19.5833 15.5208L14.375 16.3541C14.2708 16.0416 14.2708 15.8333 14.1667 15.5208C13.3333 11.25 13.9583 8.3333 15 7.81247C15.2766 7.63082 15.61 7.55672 15.9375 7.60414C17.3958 7.60414 19.8958 8.6458 22.7083 11.1458L22.8125 11.3541ZM14.1667 34.5833C14.1857 34.2617 14.256 33.9452 14.375 33.6458L19.6875 34.375C20.689 35.8481 21.8034 37.2412 23.0208 38.5416L22.8125 38.75L22.6042 38.9583C21.184 40.2738 19.5211 41.2999 17.7083 41.9791C17.3107 42.1874 16.875 42.3133 16.4275 42.3491C15.98 42.3849 15.5299 42.3299 15.1042 42.1875C13.9583 41.5625 13.3333 38.75 14.1667 34.5833Z" fill="currentColor"/>
                <path d="M25 20.4166C24.0894 20.3959 23.1932 20.647 22.4259 21.1379C21.6586 21.6287 21.0549 22.3371 20.692 23.1726C20.3291 24.008 20.2233 24.9327 20.3882 25.8285C20.5532 26.7243 20.9812 27.5507 21.6179 28.2022C22.2545 28.8536 23.0709 29.3006 23.9627 29.4861C24.8545 29.6715 25.7813 29.587 26.6249 29.2434C27.4685 28.8998 28.1905 28.3126 28.6989 27.5568C29.2073 26.801 29.4789 25.9108 29.4792 24.9999C29.4795 23.8022 29.0109 22.6519 28.1738 21.7953C27.3366 20.9387 26.1974 20.4438 25 20.4166Z" fill="currentColor"/>
            </g>
            <defs>
                <clipPath id="clip0_20_1854">
                    <rect width="50" height="50" fill="currentColor"/>
                </clipPath>
            </defs>
    </g>
    <g id="git">
            <defs>
            <clipPath id="a">
            <path d="M0 .113h91.887V92H0Zm0 0"/></clipPath></defs>
            <g clip-path="url(#a)">
            <path style="stroke:none;fill-rule:nonzero;fill:currentColor;fill-opacity:1" d="M90.156 41.965 50.036 1.848a5.918 5.918 0 0 0-8.372 0l-8.328 8.332 10.566 10.566a7.03 7.03 0 0 1 7.23 1.684 7.034 7.034 0 0 1 1.669 7.277l10.187 10.184a7.028 7.028 0 0 1 7.278 1.672 7.04 7.04 0 0 1 0 9.957 7.05 7.05 0 0 1-9.965 0 7.044 7.044 0 0 1-1.528-7.66l-9.5-9.497V59.36a7.04 7.04 0 0 1 1.86 11.29 7.04 7.04 0 0 1-9.957 0 7.04 7.04 0 0 1 0-9.958 7.06 7.06 0 0 1 2.304-1.539V33.926a7.049 7.049 0 0 1-3.82-9.234L29.242 14.272 1.73 41.777a5.925 5.925 0 0 0 0 8.371L41.852 90.27a5.925 5.925 0 0 0 8.37 0l39.934-39.934a5.925 5.925 0 0 0 0-8.371"/>
        </g>
    </g>
    <path id="typescript" d="M5 25V45H45V5H5V25ZM37.235 23.4067C38.2517 23.66 39.025 24.1117 39.7367 24.8483C40.105 25.2417 40.6517 25.9583 40.695 26.1317C40.7083 26.1817 38.9683 27.3483 37.915 28.0033C37.8767 28.0283 37.7233 27.8633 37.5533 27.61C37.0367 26.86 36.4983 26.5367 35.6733 26.48C34.46 26.3967 33.68 27.0317 33.6867 28.0917C33.6756 28.3523 33.7343 28.6112 33.8567 28.8417C34.1233 29.3933 34.62 29.725 36.1733 30.3967C39.0383 31.63 40.2633 32.4417 41.025 33.5967C41.875 34.885 42.0667 36.9433 41.4883 38.4733C40.855 40.1367 39.28 41.2667 37.0633 41.64C36.3783 41.7617 34.7533 41.7433 34.0167 41.61C32.41 41.3233 30.8867 40.53 29.9467 39.4883C29.5783 39.0833 28.86 38.0217 28.905 37.9467C28.9233 37.92 29.0883 37.8183 29.2717 37.7117C29.4517 37.61 30.1233 37.2217 30.7583 36.8533L31.9083 36.1867L32.15 36.5433C32.4867 37.0567 33.2217 37.7617 33.6667 37.9967C34.9433 38.67 36.695 38.575 37.5583 37.8C37.7319 37.6538 37.8694 37.4693 37.9599 37.2612C38.0504 37.053 38.0915 36.8267 38.08 36.6C38.08 36.1367 38.0217 35.9333 37.78 35.5833C37.47 35.14 36.835 34.7667 35.0317 33.9833C32.9683 33.095 32.08 32.5433 31.2667 31.6667C30.759 31.0881 30.3841 30.4055 30.1683 29.6667C30.0167 29.1017 29.9783 27.685 30.0983 27.115C30.5233 25.12 32.0283 23.7317 34.2 23.3183C34.905 23.185 36.5433 23.235 37.235 23.4067ZM27.845 25.0767L27.8583 26.715H22.65V41.5083H18.9667V26.715H13.7633V25.1083C13.7633 24.2183 13.7817 23.475 13.8067 23.4583C13.8267 23.4317 16.995 23.4183 20.835 23.425L27.8267 23.445L27.845 25.0767Z" fill="currentColor"/>
    <path id="styled-components" d="M37.2591 6.25L36.9888 7.64963C36.5708 10.3021 36.7221 11.061 37.8682 12.0454L38.9747 12.9546L37.8286 18.0305C37.1438 21.0588 36.3041 23.5968 35.7707 24.4308C35.313 25.1503 34.7796 26.2099 34.6642 26.7791C34.4732 27.4592 33.8245 28.1429 32.8334 28.7478C31.9576 29.2418 30.2385 30.5663 29.0203 31.6294C28.0472 32.4993 27.3769 33.0326 27.0129 33.2617L25.8235 34.196C25.4415 34.8046 25.2253 35.295 25.1424 35.6672C25.0595 36.0503 25.1063 36.3044 25.2289 36.4905C25.3478 36.6695 25.5532 36.7948 25.8343 36.8736C26.1671 36.951 26.5097 36.9788 26.8507 36.9559C27.6222 36.9035 28.3858 36.7691 29.1284 36.555C29.3807 36.487 29.5789 36.4225 29.7519 36.3653C30.0186 36.0395 30.6349 35.4238 31.7269 34.3535C34.6246 31.5149 35.731 29.9613 34.5885 30.3802C34.1669 30.5305 34.3579 30.1511 35.0823 29.3922C36.6104 27.9138 37.4862 25.6801 39.317 18.6748C40.7659 13.1443 40.7659 13.0656 41.8327 13.0656C42.3336 13.0656 43.75 13.1515 43.75 13.1515V6.25H40.4992H37.2591ZM24.4216 18.0806C23.3692 18.0735 21.1058 19.6664 14.3303 25.1611C14.0383 25.8519 14.0131 26.328 14.1464 26.6359C14.2329 26.8471 14.3915 26.9938 14.6114 27.1012C14.8276 27.2086 15.1087 27.2731 15.4187 27.2981C16.035 27.3518 16.763 27.2552 17.3504 27.1406L17.7469 27.0511C17.8826 26.8704 18.0608 26.7254 18.2659 26.6287C18.6839 26.3996 20.4391 24.8103 22.1943 23.1064C25.2829 19.9993 26.0073 18.5961 24.7495 18.1415C24.6463 18.1007 24.5326 18.08 24.4216 18.0806ZM32.336 20.2391C31.4098 20.2642 29.7411 21.3309 26.8831 23.5968C25.4487 24.753 24.5405 25.3759 24.0539 25.5047L22.1654 26.9867C21.4554 28.2753 21.3509 29.0736 21.5383 29.5139C21.5852 29.6225 21.6533 29.7208 21.7387 29.8031C21.8241 29.8855 21.925 29.9502 22.0357 29.9936C22.311 30.1015 22.6046 30.1562 22.9006 30.1546C23.608 30.1471 24.3112 30.0448 24.991 29.8504C25.3453 29.7559 25.6952 29.6461 26.0398 29.521L26.1443 29.4781L26.3353 29.3779C26.6957 28.9161 27.5246 28.0462 28.5626 27.044C31.8423 23.9011 33.5181 21.6674 33.1758 20.8333C33.0208 20.4288 32.7541 20.2248 32.336 20.2391ZM23.5998 24.1051C23.3331 24.1337 22.7349 24.5919 21.6573 25.5298C20.1003 26.8972 18.4028 27.6847 17.8154 27.3339C17.6788 27.3645 17.5419 27.3932 17.4045 27.4198C16.8062 27.5379 16.0602 27.6346 15.3934 27.5809C15.0793 27.562 14.7714 27.4855 14.4852 27.3554C14.2153 27.2328 13.9999 27.0164 13.8797 26.7468C13.7464 26.4247 13.7464 26.0238 13.8978 25.5119L11.5551 27.4234L6.2536 31.7798V38.8424L23.6251 25.2506C23.6217 25.1018 23.6411 24.9533 23.6827 24.8103C23.8161 24.3306 23.8089 24.0872 23.5998 24.1087V24.1051ZM31.0746 26.3925C30.8115 26.3925 30.3718 26.7612 29.669 27.5021C28.714 28.5152 27.2111 29.496 26.4146 29.6964L26.292 29.7609C26.1613 29.8145 26.0291 29.8646 25.8956 29.9112C25.6794 29.9828 25.3982 30.0687 25.0739 30.1546C24.4252 30.33 23.6179 30.4911 22.897 30.4732C22.5572 30.4728 22.2207 30.4072 21.9059 30.2799C21.6093 30.1585 21.3716 29.9275 21.2428 29.6356C21.0338 29.138 21.1167 28.44 21.5744 27.4485L6.25 39.4366V43.75H12.9823L27.2615 32.6103C27.6327 32.2022 28.1914 31.6438 28.9446 30.9457C30.9629 29.0879 31.4206 28.4472 31.4206 27.4986C31.4206 26.7612 31.3377 26.3889 31.0746 26.3889V26.3925ZM34.4732 33.3727L33.2514 34.5826C32.5667 35.2269 31.3449 36.0216 30.5088 36.3617L30.343 36.4333L30.3322 36.4512L30.2961 36.487C30.2637 36.512 30.2493 36.5156 30.2241 36.5263C29.8903 36.6518 29.5512 36.7629 29.2077 36.8592C28.4441 37.08 27.6586 37.218 26.8651 37.2709C26.4899 37.2948 26.1132 37.2622 25.7478 37.1743C25.4307 37.1049 25.1508 36.9213 24.9622 36.6588C24.7892 36.3939 24.7387 36.0395 24.836 35.6028C24.9134 35.2919 25.0284 34.9914 25.1784 34.7079L13.6563 43.75H28.9807L30.8115 41.6667C33.3271 38.7529 34.4732 36.6695 34.4732 34.8869V33.3727Z" fill="currentColor"/>
</svg>
